<?xml version="1.0" encoding="iso-8859-1"?>
<!-- Generator: Adobe Illustrator 18.0.0, SVG Export Plug-In . SVG Version: 6.00 Build 0)  -->
<!DOCTYPE svg PUBLIC "-//W3C//DTD SVG 1.1//EN" "http://www.w3.org/Graphics/SVG/1.1/DTD/svg11.dtd">
<svg version="1.1" id="Capa_1" xmlns="http://www.w3.org/2000/svg" xmlns:xlink="http://www.w3.org/1999/xlink" x="0px" y="0px"
	 viewBox="0 0 489.24 489.24" style="enable-background:new 0 0 489.24 489.24;" xml:space="preserve">
<g>
	<path d="M424.162,393.174c-16.422,0-29.781,13.359-29.781,29.78c0,16.42,13.359,29.779,29.781,29.779
		c16.42,0,29.778-13.359,29.778-29.779C453.94,406.533,440.582,393.174,424.162,393.174z M424.162,444.233
		c-11.734,0-21.281-9.546-21.281-21.279c0-11.734,9.547-21.28,21.281-21.28c11.732,0,21.278,9.546,21.278,21.28
		C445.44,434.688,435.895,444.233,424.162,444.233z"/>
	<path d="M472.033,378.924V162.302c0-5.479-4.459-9.938-9.94-9.938h-53.292c-5.48,0-9.938,4.458-9.938,9.938v200.69
		c-15.575,6.596-28.069,19.089-34.665,34.664l-348.485-0.001c-5.481,0-9.938,4.458-9.938,9.938v30.716
		c0,5.48,4.458,9.938,9.938,9.938h6.883v30.179c0,5.48,4.458,9.939,9.938,9.939h54.607c5.479,0,9.938-4.458,9.938-9.939v-30.179
		h267.119c9.89,23.357,33.045,39.785,59.965,39.785c35.884,0,65.078-29.194,65.078-65.079
		C489.24,405.986,482.708,390.521,472.033,378.924z M407.363,162.302c0-0.793,0.645-1.438,1.438-1.438h12.897
		c-0.049,0.258-0.08,0.521-0.08,0.793v112.62c0,2.348,1.902,4.25,4.25,4.25c2.348,0,4.25-1.902,4.25-4.25v-112.62
		c0-0.271-0.031-0.535-0.08-0.793h32.055c0.794,0,1.44,0.645,1.44,1.438v208.879c-10.94-8.34-24.584-13.307-39.371-13.307
		c-5.808,0-11.437,0.775-16.799,2.21V162.302z M88.578,478.427c0,0.793-0.645,1.439-1.438,1.439H32.533
		c-0.793,0-1.438-0.646-1.438-1.439v-30.179h57.482V478.427z M15.713,439.748c-0.793,0-1.439-0.645-1.439-1.438v-30.716
		c0-0.793,0.646-1.438,1.439-1.438l345.577,0.001c-1.435,5.362-2.21,10.99-2.21,16.798c0,5.807,0.775,11.434,2.209,16.794H15.713z
		 M424.162,479.533c-31.199,0-56.582-25.381-56.582-56.579c0-31.198,25.383-56.58,56.582-56.58c31.197,0,56.578,25.382,56.578,56.58
		C480.74,454.152,455.359,479.533,424.162,479.533z"/>
	<path d="M34.665,251.083v-16.227h51.583v42.621c0,6.87,2.128,17.195,4.844,23.506l31.235,72.588
		c3.142,7.3,11.829,13.019,19.777,13.019h190.529c7.946,0,16.633-5.718,19.777-13.019l31.235-72.588
		c2.715-6.31,4.842-16.634,4.842-23.505V164.315c0-6.987-2.615-17.266-5.955-23.4l-69.58-127.828
		c-3.727-6.848-12.752-12.212-20.548-12.212H182.334c-7.795,0-16.82,5.363-20.549,12.211l-69.58,127.829
		c-3.341,6.137-5.957,16.415-5.957,23.399v26.776H34.665v-16.229c0-2.348-1.902-4.25-4.25-4.25H4.25c-2.348,0-4.25,1.902-4.25,4.25
		v76.221c0,2.348,1.902,4.25,4.25,4.25h26.165C32.763,255.333,34.665,253.431,34.665,251.083z M169.25,17.15
		c2.256-4.142,8.369-7.775,13.084-7.775h110.071c4.715,0,10.828,3.633,13.082,7.775l8.542,15.692H202.296
		c-2.348,0-4.25,1.902-4.25,4.25c0,2.348,1.902,4.25,4.25,4.25h116.359l12.092,22.214h-68.69c-2.348,0-4.25,1.902-4.25,4.25
		c0,2.348,1.902,4.25,4.25,4.25h73.317l39.694,72.923c2.667,4.899,4.92,13.754,4.92,19.336v113.163c0,2.037-0.247,4.529-0.662,7.127
		H220.663c-2.348,0-4.25,1.902-4.25,4.25c0,2.348,1.902,4.25,4.25,4.25h156.762c-0.491,1.676-1.028,3.221-1.587,4.519
		l-31.234,72.587c-1.808,4.197-7.401,7.879-11.97,7.879H142.105c-4.57,0-10.164-3.682-11.97-7.879l-31.235-72.588
		c-0.559-1.298-1.096-2.843-1.587-4.518h77.626c2.348,0,4.25-1.902,4.25-4.25c0-2.348-1.902-4.25-4.25-4.25H95.411
		c-0.416-2.598-0.663-5.091-0.663-7.128V164.314c0-2.052,0.307-4.548,0.825-7.126h244.676c2.348,0,4.25-1.902,4.25-4.25
		c0-2.348-1.902-4.25-4.25-4.25H98.003c0.523-1.372,1.084-2.639,1.667-3.709L169.25,17.15z M86.248,199.591v26.766H34.665v-26.766
		H86.248z M26.165,246.833H8.5v-67.721h17.665V246.833z"/>
</g>
<g>
</g>
<g>
</g>
<g>
</g>
<g>
</g>
<g>
</g>
<g>
</g>
<g>
</g>
<g>
</g>
<g>
</g>
<g>
</g>
<g>
</g>
<g>
</g>
<g>
</g>
<g>
</g>
<g>
</g>
</svg>
