<?xml version="1.0" encoding="iso-8859-1"?>
<!-- Generator: Adobe Illustrator 18.1.1, SVG Export Plug-In . SVG Version: 6.00 Build 0)  -->
<svg xmlns="http://www.w3.org/2000/svg" xmlns:xlink="http://www.w3.org/1999/xlink" version="1.1" id="Capa_1" x="0px" y="0px" viewBox="0 0 612 612" style="enable-background:new 0 0 612 612;" xml:space="preserve" width="512px" height="512px">
<g>
	<g>
		<path d="M560.269,463.289c12.487,0,22.706-10.16,22.706-22.647s-10.13-22.777-22.618-22.777c-8.589,0-16.048,4.206-19.885,11.743    h-27.998v18.089h-17.428c-16.349,0-29.301,13.357-29.301,29.78v57.085c0,14.192-12.125,26.189-26.066,26.189h-22.171v-21.103    h30.148V380.513l35.501,35.488c8.009,8.009,18.663,12.419,29.994,12.419c11.33,0,21.982-4.411,29.991-12.418    c8.013-8.015,12.43-18.666,12.43-29.994s-4.414-21.976-12.427-29.983l-41.682-41.682l-3.15,3.03c0,0-78.627-79.084-80.306-80.834    c18.351-19.055,29.652-44.926,29.652-73.407V68.274C447.655,30.421,416.896,0,379.043,0h-74.53    c-37.855,0-67.891,30.421-67.891,68.274v94.858c0,28.557,10.999,54.492,29.438,73.561c-2.59,2.68-76.039,76.687-76.039,76.687    l-2.76-2.599l-27.858,27.831l-11.881-11.866c-4.487-4.509-10.482-6.991-16.866-6.991c-4.311,0-8.432,1.156-12.04,3.277    L69.35,273.768c-8.315-8.313-21.844-8.313-30.155,0l-10.169,10.169l8.526,8.527l10.17-10.169c3.612-3.612,9.489-3.612,13.101,0    l49.269,49.271c-2.124,3.615-3.282,7.728-3.282,12.027c0,6.364,2.483,12.352,6.99,16.859l19.384,19.385    c-0.053,0.865-0.087,1.735-0.087,2.609c0,11.327,4.414,21.979,12.428,29.994c8.009,8.007,18.657,12.418,29.988,12.418    c0.874,0,1.741-0.035,2.606-0.087l8.669,8.669c4.647,4.646,10.924,6.969,17.026,6.969c0.831,0,1.153-0.051,2.661-0.137v94.286    c0,20.73,17.13,38.249,37.817,38.249h22.128l0.06,39.192h151.027v-39.192h22.171c20.829,0,38.125-17.16,38.125-38.249v-57.085    c0-9.774,7.541-17.721,17.242-17.721h17.428v6.732c-16.581,6.83-27.133,23.259-27.133,42.404V612h90.443V508.892    c0-19.145-12.059-35.576-28.64-42.404v-7.336C551.664,461.748,555.427,463.289,560.269,463.289z M560.385,430.054    c5.838,0,10.588,4.75,10.588,10.588c0,5.838-4.75,10.588-10.588,10.588c-5.838,0-10.588-4.75-10.588-10.588    C549.797,434.803,554.547,430.054,560.385,430.054z M501.294,331.234l33.324,33.322c5.736,5.731,8.894,13.349,8.894,21.453    c0,8.107-3.159,15.73-8.897,21.465c-5.73,5.731-13.351,8.888-21.461,8.888c-8.11,0-15.73-3.156-21.461-8.888l-34.165-34.163    L501.294,331.234z M489.429,325.733l-41.954,40.35l-0.17-56.289c0-10.626-1.626-20.999-4.587-30.862L489.429,325.733z     M435.596,309.793v12.789H403.94v-73.52c1.507-1.381,3.794-2.802,5.609-4.304C426.346,262.216,435.596,285.227,435.596,309.793z     M248.679,163.134v-94.86c0-31.204,24.626-56.215,55.832-56.215h74.53c31.206,0,56.554,25.011,56.554,56.215v94.858    c0,51.755-41.703,93.859-93.458,93.859S248.679,214.887,248.679,163.134z M391.881,256.603v65.978h-96.473v-64.42    c13.567,6.961,29.956,10.891,46.717,10.891C360.101,269.051,376.807,264.536,391.881,256.603z M248.679,309.793    c0-24.619,9.264-47.465,26.186-64.899c2.716,2.238,5.469,4.338,8.484,6.302v71.385h-34.67V309.793z M240.74,279.779    c-2.81,9.59-4.12,19.658-4.12,30.014v47.787l-37.56-35.838L240.74,279.779z M122.325,351.927c-2.229-2.229-3.456-5.187-3.456-8.33    s1.229-6.1,3.467-8.34c2.208-2.219,5.161-3.44,8.315-3.44c3.152,0,6.105,1.223,8.322,3.45l11.875,11.875l-5.323,5.323    c-3.951,3.948-7.023,8.539-9.127,13.535L122.325,351.927z M211.961,424.915c-4.59,4.59-12.058,4.59-16.648,0l-3.354-3.354    c4.997-2.101,9.59-5.17,13.539-9.118l5.32-5.32l1.147,1.15c2.226,2.222,3.452,5.175,3.452,8.318    C215.417,419.734,214.19,422.689,211.961,424.915z M196.971,403.915c-5.731,5.73-13.352,8.886-21.461,8.886    c-8.108,0-15.731-3.156-21.461-8.886c-5.737-5.737-8.897-13.362-8.897-21.467c0-8.104,3.158-15.724,8.897-21.455l33.321-33.321    l43.764,42.079L196.971,403.915z M266.768,560.749H244.29c-14.151,0-25.758-11.996-25.758-26.189v-99.118    c0-0.615,1.396-1.266,2.125-1.994c4.51-4.5,6.905-10.487,6.905-16.856c0-6.369-2.528-12.355-7.026-16.844l-0.797-1.152    l16.881-16.532v157.581h30.148V560.749z M279.236,599.941c2.858-12.059,14.273-22.579,27.903-22.579    c13.63,0,25.045,10.52,27.903,22.579H279.236z M336.108,577.036c-7.537-7.27-17.469-11.74-28.621-11.74    c-11.171,0-21.123,4.483-28.66,11.776v-37.427h57.281V577.036z M348.514,599.941c2.858-12.059,14.273-22.579,27.903-22.579    s25.045,10.52,27.903,22.579H348.514z M405.448,577.095c-7.537-7.306-17.501-11.798-28.683-11.798    c-11.14,0-21.061,4.459-28.598,11.717v-37.368h57.281V577.095z M248.679,527.586V334.64h186.916v192.946H248.679z     M524.531,441.665h10.552v21.103h-10.552V441.665z M563.724,508.892v91.049h-66.325v-91.049c0-18.601,14.561-33.734,33.163-33.734    C549.162,475.158,563.724,490.29,563.724,508.892z" fill="#803a01"/>
		<path d="M296.916,444.68h90.443v-93.458h-90.443V444.68z M308.975,363.281H375.3v15.074h-66.325V363.281z M308.975,390.414H375.3    v42.207h-66.325V390.414z" fill="#803a01"/>
		<path d="M411.477,120.591H269.783v51.251h141.695V120.591z M281.842,159.783V132.65h34.905l-28.297,27.133H281.842z     M305.505,159.783l28.297-27.133h16.179l-28.297,27.133H305.505z M338.74,159.783l28.297-27.133h25.675l-28.297,27.133H338.74z     M399.418,159.783H381.47l17.948-16.657V159.783z" fill="#803a01"/>
		<circle cx="288.958" cy="51.22" r="9.1" fill="#803a01"/>
		<circle cx="341.777" cy="51.22" r="9.1" fill="#803a01"/>
		<circle cx="393.41" cy="51.22" r="9.1" fill="#803a01"/>
	</g>
</g>
<g>
</g>
<g>
</g>
<g>
</g>
<g>
</g>
<g>
</g>
<g>
</g>
<g>
</g>
<g>
</g>
<g>
</g>
<g>
</g>
<g>
</g>
<g>
</g>
<g>
</g>
<g>
</g>
<g>
</g>
</svg>
