<?xml version="1.0" encoding="iso-8859-1"?>
<!-- Generator: Adobe Illustrator 18.0.0, SVG Export Plug-In . SVG Version: 6.00 Build 0)  -->
<!DOCTYPE svg PUBLIC "-//W3C//DTD SVG 1.1//EN" "http://www.w3.org/Graphics/SVG/1.1/DTD/svg11.dtd">
<svg xmlns="http://www.w3.org/2000/svg" xmlns:xlink="http://www.w3.org/1999/xlink" version="1.1" id="Capa_1" x="0px" y="0px" viewBox="0 0 482.992 482.992" style="enable-background:new 0 0 482.992 482.992;" xml:space="preserve" width="512px" height="512px">
<path d="M466.223,233.742c0-27.811-7.576-55.12-21.909-78.974c-13.56-22.567-32.579-41.13-55.091-53.855V80.402  c0-12.269-9.981-22.25-22.25-22.25h-21.718V39.75c0-21.918-17.832-39.75-39.75-39.75H56.52C34.602,0,16.77,17.832,16.77,39.75  v435.864c0,2.348,1.902,4.25,4.25,4.25h35c2.348,0,4.25-1.902,4.25-4.25V43.5h241.485v14.652h-36.782  c-12.269,0-22.25,9.981-22.25,22.25v20.467c-48.789,26.563-79,77.225-79,132.873c0,20.797,4.268,40.736,12,58.93v168.07  c0,12.269,9.981,22.25,22.25,22.25h2c12.268,0,22.25-9.981,22.25-22.25V353.154c19.742,15.395,43.45,26.037,69.5,30.056v77.532  c0,12.269,9.981,22.25,22.25,22.25h2c12.269,0,22.25-9.981,22.25-22.25V383.21c26.05-4.019,49.758-14.661,69.5-30.056v107.588  c0,12.269,9.981,22.25,22.25,22.25h2c12.269,0,22.25-9.981,22.25-22.25v-168.07C461.955,274.478,466.223,254.539,466.223,233.742z   M51.77,452.478h-26.5v-93.495h16.249c2.348,0,4.25-1.902,4.25-4.25s-1.902-4.25-4.25-4.25H25.27V117.496h26.5V452.478z   M25.27,471.364v-10.386h26.5v10.386H25.27z M305.505,35H56.52c-2.619,0-4.75,2.131-4.75,4.75v69.246h-26.5V39.75  c0-17.231,14.019-31.25,31.25-31.25h248.985c17.231,0,31.25,14.019,31.25,31.25v18.402h-26.5V39.75  C310.255,37.131,308.124,35,305.505,35z M251.223,80.402c0-7.582,6.168-13.75,13.75-13.75h102c6.583,0,12.094,4.652,13.434,10.84  h-84.434c-2.348,0-4.25,1.902-4.25,4.25c0,2.348,1.902,4.25,4.25,4.25h84.75v15.5h-129.5V80.402z M213.723,460.742  c0,7.582-6.168,13.75-13.75,13.75h-2c-7.582,0-13.75-6.168-13.75-13.75V309.641c7.907,13.584,17.875,25.86,29.5,36.375V460.742z   M329.723,460.742c0,7.582-6.168,13.75-13.75,13.75h-2c-7.582,0-13.75-6.168-13.75-13.75v-122c0-7.582,6.168-13.75,13.75-13.75h2  c7.582,0,13.75,6.168,13.75,13.75V460.742z M315.973,316.492h-2c-12.269,0-22.25,9.981-22.25,22.25v35.854  c-68.46-11.211-119.5-70.917-119.5-140.854c0-0.92,0.03-1.834,0.047-2.75h177.703c2.348,0,4.25-1.902,4.25-4.25  s-1.902-4.25-4.25-4.25H172.678c0.872-11.172,3.025-22.067,6.371-32.5h57.924c2.348,0,4.25-1.902,4.25-4.25s-1.902-4.25-4.25-4.25  h-54.898c11.797-30.074,33.667-55.674,62.761-72.096c0.63,0.369,1.354,0.596,2.138,0.596h138c0.752,0,1.448-0.212,2.061-0.555  c43.723,25.623,70.689,72.817,70.689,124.305c0,13.021-1.777,25.685-5.099,37.75H307.273c-2.348,0-4.25,1.902-4.25,4.25  c0,2.348,1.902,4.25,4.25,4.25h142.721c-16.728,48.63-59.088,85.977-111.771,94.604v-35.854  C338.223,326.474,328.241,316.492,315.973,316.492z M445.723,460.742c0,7.582-6.168,13.75-13.75,13.75h-2  c-7.582,0-13.75-6.168-13.75-13.75V346.016c11.625-10.515,21.593-22.791,29.5-36.375V460.742z" fill="#753705"/>
<g>
</g>
<g>
</g>
<g>
</g>
<g>
</g>
<g>
</g>
<g>
</g>
<g>
</g>
<g>
</g>
<g>
</g>
<g>
</g>
<g>
</g>
<g>
</g>
<g>
</g>
<g>
</g>
<g>
</g>
</svg>
