<?xml version="1.0" encoding="iso-8859-1"?>
<!-- Generator: Adobe Illustrator 18.0.0, SVG Export Plug-In . SVG Version: 6.00 Build 0)  -->
<!DOCTYPE svg PUBLIC "-//W3C//DTD SVG 1.1//EN" "http://www.w3.org/Graphics/SVG/1.1/DTD/svg11.dtd">
<svg xmlns="http://www.w3.org/2000/svg" xmlns:xlink="http://www.w3.org/1999/xlink" version="1.1" id="Capa_1" x="0px" y="0px" viewBox="0 0 483.652 483.652" style="enable-background:new 0 0 483.652 483.652;" xml:space="preserve" width="512px" height="512px">
<g>
	<path d="M261.348,210.883L7.871,210.881c-1.127,0-2.208,0.447-3.005,1.245c-0.797,0.797-1.245,1.878-1.245,3.005v119.217   c0,0.021-0.006,0.039-0.006,0.059v144.996c0,2.348,1.903,4.25,4.25,4.25h32c2.347,0,4.25-1.902,4.25-4.25V362.165l60.138,29.56   c0.583,0.286,1.225,0.436,1.875,0.436h56.965c0.65,0,1.292-0.149,1.875-0.436l60.116-29.55v117.228c0,2.348,1.903,4.25,4.25,4.25   h32c2.347,0,4.25-1.902,4.25-4.25V339.82c0.003-0.069,0.015-0.137,0.015-0.207V215.133   C265.598,212.785,263.695,210.883,261.348,210.883z M35.615,475.152h-23.5V346.436l23.5,11.551V475.152z M162.105,383.66h-54.989   l-94.995-46.693v-21.31h85.801c2.347,0,4.25-1.902,4.25-4.25c0-2.348-1.903-4.25-4.25-4.25H12.121v-49.5h155.801   c2.347,0,4.25-1.902,4.25-4.25c0-2.348-1.903-4.25-4.25-4.25H12.121v-29.775l244.978,0.002v114.878   c-0.001,0.05-0.015,0.096-0.015,0.146v2.567L162.105,383.66z M233.583,475.152V357.997l23.5-11.552v128.707H233.583z" fill="#803c05"/>
	<path d="M227.922,249.156h-42c-2.347,0-4.25,1.902-4.25,4.25c0,2.348,1.903,4.25,4.25,4.25h42c2.347,0,4.25-1.902,4.25-4.25   C232.172,251.059,230.269,249.156,227.922,249.156z" fill="#803c05"/>
	<path d="M470.788,151.656c5.101,0,9.25-4.149,9.25-9.25v-22c0-5.101-4.149-9.25-9.25-9.25h-4.705v-29.69   C466.082,36.546,429.537,0,384.616,0h-3.66c-31.078,0-58.137,17.499-71.868,43.156h-91.427c-33.902,0-61.483,27.581-61.483,61.482   v34.268c0,2.348,1.903,4.25,4.25,4.25h48c2.347,0,4.25-1.902,4.25-4.25v-34.268c0-2.747,2.235-4.982,4.983-4.982h81.831v11.5   h-4.705c-5.101,0-9.25,4.149-9.25,9.25v22c0,5.101,4.149,9.25,9.25,9.25h4.705l0,114.5h-4.704c-5.101,0-9.25,4.149-9.25,9.25v22   c0,5.101,4.149,9.25,9.25,9.25h4.704v49.016c0,23.353,9.892,44.427,25.687,59.295v64.436c0,2.348,1.903,4.25,4.25,4.25   c2.347,0,4.25-1.902,4.25-4.25v-57.449c13.342,9.545,29.658,15.186,47.277,15.186h3.66c17.305,0,33.354-5.44,46.563-14.677v56.94   c0,2.348,1.903,4.25,4.25,4.25c2.347,0,4.25-1.902,4.25-4.25v-63.753c16.218-14.901,26.404-36.27,26.404-59.978v-49.016h4.706   c5.101,0,9.25-4.149,9.25-9.25v-22c0-5.101-4.149-9.25-9.25-9.25h-4.706l0-114.5H470.788z M217.661,91.156   c-7.435,0-13.483,6.048-13.483,13.482v30.018h-39.5v-30.018c0-29.215,23.768-52.982,52.983-52.982h87.505   c-3.647,9.24-5.673,19.29-5.673,29.81v9.69H217.661z M307.992,89.656h66.102c2.347,0,4.25-1.902,4.25-4.25   c0-2.348-1.903-4.25-4.25-4.25H308C308.169,41.064,340.828,8.5,380.956,8.5h3.66c40.234,0,72.966,32.732,72.966,72.967v29.69   h-149.59V89.656z M294.038,142.406v-22c0-0.413,0.337-0.75,0.75-0.75h176c0.414,0,0.75,0.337,0.75,0.75v22   c0,0.413-0.336,0.75-0.75,0.75h-176C294.374,143.156,294.038,142.819,294.038,142.406z M457.582,355.672   c0,40.234-32.733,72.967-72.967,72.967h-3.66c-37.763,0-68.915-28.839-72.597-65.65h81.736c2.347,0,4.25-1.902,4.25-4.25   c0-2.348-1.903-4.25-4.25-4.25h-82.103v-47.832h149.59V355.672z M471.538,275.406v22c0,0.413-0.336,0.75-0.75,0.75h-176   c-0.413,0-0.75-0.337-0.75-0.75v-22c0-0.413,0.337-0.75,0.75-0.75h176C471.201,274.656,471.538,274.993,471.538,275.406z    M457.582,174.488h-74.821c-2.347,0-4.25,1.902-4.25,4.25c0,2.348,1.903,4.25,4.25,4.25h74.821l0,83.168h-149.59l0-114.5h149.59   V174.488z" fill="#803c05"/>
</g>
<g>
</g>
<g>
</g>
<g>
</g>
<g>
</g>
<g>
</g>
<g>
</g>
<g>
</g>
<g>
</g>
<g>
</g>
<g>
</g>
<g>
</g>
<g>
</g>
<g>
</g>
<g>
</g>
<g>
</g>
</svg>
