<?xml version="1.0" encoding="iso-8859-1"?>
<!-- Generator: Adobe Illustrator 18.0.0, SVG Export Plug-In . SVG Version: 6.00 Build 0)  -->
<!DOCTYPE svg PUBLIC "-//W3C//DTD SVG 1.1//EN" "http://www.w3.org/Graphics/SVG/1.1/DTD/svg11.dtd">
<svg xmlns="http://www.w3.org/2000/svg" xmlns:xlink="http://www.w3.org/1999/xlink" version="1.1" id="Capa_1" x="0px" y="0px" viewBox="0 0 489.14 489.14" style="enable-background:new 0 0 489.14 489.14;" xml:space="preserve" width="512px" height="512px">
<g>
	<path d="M480.741,122.849h-53.788c-4.631,0-8.399,3.768-8.399,8.399v3.229h-91.973l10.506-18.197   c1.198-2.074,1.516-4.491,0.896-6.805c-0.62-2.314-2.104-4.248-4.178-5.445l-10.896-6.291c-2.075-1.198-4.492-1.515-6.805-0.895   c-2.314,0.62-4.248,2.104-5.445,4.179l-12.317,21.333c-16.236-7.061-34.138-10.985-52.941-10.985   c-18.804,0-36.707,3.925-52.942,10.986l-12.316-21.333c-1.197-2.075-3.131-3.56-5.445-4.18c-2.315-0.619-4.732-0.302-6.805,0.896   l-10.895,6.29c-4.282,2.472-5.755,7.966-3.284,12.25l10.507,18.197H70.586v-3.229c0-4.631-3.768-8.399-8.399-8.399H8.399   c-4.631,0-8.399,3.768-8.399,8.399v226.643c0,4.631,3.768,8.398,8.399,8.398h53.788c4.631,0,8.399-3.768,8.399-8.398v-3.228h93.633   l-10.505,18.196c-1.198,2.074-1.517,4.491-0.896,6.806c0.62,2.314,2.105,4.248,4.179,5.445l10.896,6.292   c1.408,0.813,2.947,1.199,4.467,1.199c3.102-0.001,6.123-1.609,7.783-4.482l12.316-21.333   c16.236,7.061,34.138,10.986,52.942,10.986s36.707-3.925,52.942-10.986l12.316,21.333c1.197,2.075,3.131,3.559,5.445,4.179   c0.773,0.207,1.557,0.31,2.336,0.31c1.554,0,3.087-0.407,4.469-1.205l10.896-6.291c4.282-2.474,5.753-7.969,3.281-12.251   l-10.506-18.197h91.974v3.228c0,4.631,3.768,8.398,8.399,8.398h53.788c4.631,0,8.399-3.768,8.399-8.398V131.248   C489.14,126.617,485.372,122.849,480.741,122.849z M318.021,105.271c0.064-0.111,0.16-0.184,0.284-0.218   c0.125-0.033,0.244-0.018,0.355,0.047l10.895,6.291c0.111,0.064,0.185,0.16,0.218,0.284c0.033,0.124,0.018,0.243-0.047,0.354   l-11.981,20.751c-3.771-2.449-7.671-4.718-11.692-6.783L318.021,105.271z M161.246,111.391l10.896-6.291   c0.111-0.064,0.23-0.08,0.354-0.046c0.124,0.033,0.219,0.106,0.284,0.218l11.966,20.727c-4.021,2.065-7.92,4.334-11.69,6.783   l-11.981-20.75C160.945,111.807,161.022,111.52,161.246,111.391z M62.086,357.789H8.5v-226.44h14.338v105.602   c0,2.347,1.903,4.25,4.25,4.25c2.347,0,4.25-1.903,4.25-4.25V131.349h30.747V357.789z M70.586,303.481h16.132   c2.347,0,4.25-1.903,4.25-4.25c0-2.347-1.903-4.25-4.25-4.25H70.586V170.307h25.408c2.347,0,4.25-1.903,4.25-4.25   s-1.903-4.25-4.25-4.25H70.586v-18.83h88.772c-25.17,21.35-42.33,51.861-46.279,86.335H88.454c-4.945,0-8.968,4.023-8.968,8.968   v12.58c0,4.945,4.023,8.968,8.968,8.968h24.625c3.95,34.474,21.109,64.985,46.279,86.335H70.586V303.481z M112.371,251.328H88.454   c-0.258,0-0.468-0.21-0.468-0.468v-12.58c0-0.258,0.21-0.468,0.468-0.468h23.916c-0.112,2.239-0.17,4.492-0.17,6.758   C112.2,246.836,112.258,249.089,112.371,251.328z M172.78,383.867c-0.129,0.224-0.416,0.302-0.64,0.172l-10.895-6.291   c-0.111-0.064-0.185-0.16-0.218-0.284c-0.033-0.124-0.018-0.243,0.047-0.355l11.98-20.751c3.771,2.449,7.67,4.718,11.691,6.783   L172.78,383.867z M120.7,244.57c0-68.76,55.94-124.7,124.7-124.7c68.76,0,124.7,55.94,124.7,124.7s-55.94,124.7-124.7,124.7   C176.64,369.27,120.7,313.33,120.7,244.57z M378.429,237.812h23.917c0.258,0,0.468,0.21,0.468,0.468v12.58   c0,0.258-0.21,0.468-0.468,0.468h-23.917c0.112-2.239,0.17-4.492,0.17-6.758C378.6,242.304,378.542,240.051,378.429,237.812z    M329.554,377.749l-10.895,6.29c-0.112,0.065-0.23,0.081-0.355,0.047c-0.124-0.034-0.22-0.107-0.284-0.219l-11.966-20.727   c4.02-2.065,7.919-4.333,11.691-6.782l11.981,20.751C329.854,377.333,329.777,377.621,329.554,377.749z M331.441,346.163   c25.17-21.35,42.33-51.861,46.279-86.335h24.625c4.945,0,8.968-4.023,8.968-8.968v-12.58c0-4.945-4.023-8.968-8.968-8.968h-24.625   c-3.95-34.474-21.109-64.985-46.279-86.335h87.112v179.831h-44.287c-2.347,0-4.25,1.903-4.25,4.25c0,2.347,1.903,4.25,4.25,4.25   h44.287v14.854H331.441z M480.64,357.789h-12.015V234.963c0-2.347-1.903-4.25-4.25-4.25c-2.347,0-4.25,1.903-4.25,4.25v122.826   h-33.071v-226.44h53.586V357.789z" fill="#803b03"/>
	<path d="M245.4,138.203c-58.65,0-106.366,47.716-106.366,106.367c0,58.65,47.716,106.366,106.366,106.366   S351.766,303.22,351.766,244.57C351.766,185.919,304.05,138.203,245.4,138.203z M288.357,332.489l-33.148-57.415   c4.385-1.413,8.362-3.743,11.699-6.769l33.147,57.411C296.329,328.233,292.42,330.496,288.357,332.489z M190.746,325.716   l33.146-57.411c3.337,3.026,7.314,5.356,11.699,6.769l-33.148,57.415C198.379,330.496,194.47,328.233,190.746,325.716z    M147.534,244.57c0-2.272,0.084-4.524,0.237-6.758h66.306c-0.47,2.18-0.723,4.439-0.723,6.758c0,2.318,0.253,4.578,0.723,6.758   h-66.306C147.618,249.094,147.534,246.842,147.534,244.57z M202.443,156.65l33.148,57.415c-4.385,1.413-8.362,3.743-11.699,6.769   l-33.146-57.412C194.47,160.906,198.379,158.643,202.443,156.65z M300.054,163.422l-33.147,57.412   c-3.337-3.026-7.314-5.355-11.699-6.769l33.149-57.415C292.42,158.643,296.33,160.906,300.054,163.422z M245.4,268.116   c-12.983,0-23.546-10.563-23.546-23.546c0-12.983,10.563-23.546,23.546-23.546s23.546,10.563,23.546,23.546   C268.946,257.553,258.383,268.116,245.4,268.116z M276.723,237.812h66.306c0.153,2.234,0.237,4.486,0.237,6.758   c0,2.272-0.084,4.524-0.237,6.758h-66.306c0.47-2.18,0.723-4.439,0.723-6.758C277.446,242.251,277.193,239.992,276.723,237.812z    M342.074,229.312h-68.499c-0.278-0.512-0.573-1.013-0.878-1.507l34.228-59.284C325.33,183.441,338.235,204.89,342.074,229.312z    M280.52,153.224l-34.249,59.322c-0.29-0.008-0.578-0.022-0.87-0.022c-0.292,0-0.581,0.014-0.871,0.022l-34.249-59.322   c10.907-4.208,22.747-6.521,35.12-6.521C257.772,146.703,269.613,149.016,280.52,153.224z M183.875,168.521l34.227,59.284   c-0.305,0.494-0.599,0.995-0.877,1.506h-68.499C152.565,204.89,165.47,183.441,183.875,168.521z M148.726,259.828h68.499   c0.278,0.511,0.573,1.012,0.877,1.506l-34.228,59.284C165.47,305.698,152.565,284.249,148.726,259.828z M210.28,335.915   l34.249-59.321c0.29,0.008,0.579,0.022,0.871,0.022c0.292,0,0.58-0.014,0.871-0.022l34.249,59.321   c-10.907,4.208-22.748,6.521-35.12,6.521C233.028,342.436,221.187,340.122,210.28,335.915z M306.925,320.618l-34.228-59.283   c0.305-0.494,0.6-0.995,0.878-1.507h68.499C338.235,284.249,325.33,305.698,306.925,320.618z" fill="#803b03"/>
</g>
<g>
</g>
<g>
</g>
<g>
</g>
<g>
</g>
<g>
</g>
<g>
</g>
<g>
</g>
<g>
</g>
<g>
</g>
<g>
</g>
<g>
</g>
<g>
</g>
<g>
</g>
<g>
</g>
<g>
</g>
</svg>
