<?xml version="1.0" encoding="iso-8859-1"?>
<!-- Generator: Adobe Illustrator 18.0.0, SVG Export Plug-In . SVG Version: 6.00 Build 0)  -->
<!DOCTYPE svg PUBLIC "-//W3C//DTD SVG 1.1//EN" "http://www.w3.org/Graphics/SVG/1.1/DTD/svg11.dtd">
<svg xmlns="http://www.w3.org/2000/svg" xmlns:xlink="http://www.w3.org/1999/xlink" version="1.1" id="Capa_1" x="0px" y="0px" viewBox="0 0 486.108 486.108" style="enable-background:new 0 0 486.108 486.108;" xml:space="preserve" width="512px" height="512px">
<g>
	<path d="M409.9,298.403H75.946c-29.902,0-54.23,24.327-54.23,54.229c0,29.902,24.328,54.229,54.23,54.229H409.9   c29.903,0,54.231-24.327,54.231-54.229C464.132,322.73,439.804,298.403,409.9,298.403z M409.9,398.362H75.946   c-25.216,0-45.73-20.514-45.73-45.729c0-25.215,20.515-45.729,45.73-45.729H409.9c25.217,0,45.731,20.514,45.731,45.729   C455.632,377.848,435.117,398.362,409.9,398.362z" fill="#802403"/>
	<path d="M411.721,278.246h-13.376c0.361-1.149,0.558-2.371,0.558-3.638V71.237c0-6.698-5.45-12.147-12.148-12.147h-203.37   c-6.698,0-12.148,5.449-12.148,12.147v203.371c0,1.267,0.196,2.488,0.558,3.638h-15.975v-83.54c0-4.153-3.379-7.532-7.531-7.532   H63.768c-4.153,0-7.532,3.379-7.532,7.531v84.519c0,0.43,0.044,0.848,0.114,1.258C24.017,288.587,0,317.856,0,352.632   c0,41.017,33.404,74.387,74.465,74.387h337.256c41.018,0,74.388-33.37,74.388-74.387S452.738,278.246,411.721,278.246z    M179.735,274.608V71.237c0-2.011,1.637-3.647,3.648-3.647h203.37c2.012,0,3.648,1.636,3.648,3.647v203.371   c0,1.978-1.586,3.585-3.552,3.638H183.287C181.321,278.193,179.735,276.586,179.735,274.608z M147.317,195.673v21.807H79.319   c-2.348,0-4.25,1.903-4.25,4.25c0,2.347,1.902,4.25,4.25,4.25h67.998v21.875H64.735v-52.182H147.317z M64.735,278.256v-21.901   h82.582v21.891H74.465c-0.143,0-0.282,0.01-0.424,0.011H64.735z M411.721,418.519H74.465c-36.373,0-65.965-29.557-65.965-65.887   c0-36.188,29.363-65.646,65.541-65.876h74.245c0.071,0,0.141-0.009,0.212-0.011h34.693c0.064,0.001,0.127,0.01,0.192,0.01h203.37   c0.065,0,0.128-0.009,0.193-0.01h24.773c36.331,0,65.888,29.557,65.888,65.887S448.052,418.519,411.721,418.519z" fill="#802403"/>
	<path d="M79.4,317.54c-19.351,0-35.094,15.743-35.094,35.093c0,19.351,15.743,35.094,35.094,35.094s35.094-15.743,35.094-35.094   C114.494,333.283,98.751,317.54,79.4,317.54z M79.4,379.227c-14.664,0-26.594-11.93-26.594-26.594   c0-14.663,11.93-26.593,26.594-26.593c14.664,0,26.594,11.93,26.594,26.593C105.994,367.297,94.064,379.227,79.4,379.227z" fill="#802403"/>
	<path d="M188.349,317.54c-19.351,0-35.094,15.743-35.094,35.093c0,19.351,15.743,35.094,35.094,35.094s35.093-15.743,35.093-35.094   C223.441,333.283,207.699,317.54,188.349,317.54z M188.349,379.227c-14.664,0-26.594-11.93-26.594-26.594   c0-14.663,11.93-26.593,26.594-26.593c14.663,0,26.593,11.93,26.593,26.593C214.941,367.297,203.012,379.227,188.349,379.227z" fill="#802403"/>
	<path d="M297.293,317.54c-19.35,0-35.094,15.743-35.094,35.093c0,19.351,15.743,35.094,35.094,35.094   c19.352,0,35.096-15.743,35.096-35.094C332.389,333.283,316.645,317.54,297.293,317.54z M297.293,379.227   c-14.664,0-26.594-11.93-26.594-26.594c0-14.663,11.93-26.593,26.594-26.593c14.665,0,26.596,11.93,26.596,26.593   C323.889,367.297,311.958,379.227,297.293,379.227z" fill="#802403"/>
	<path d="M406.239,317.54c-19.352,0-35.095,15.743-35.095,35.093c0,19.351,15.743,35.094,35.095,35.094   c19.35,0,35.092-15.743,35.092-35.094C441.331,333.283,425.589,317.54,406.239,317.54z M406.239,379.227   c-14.664,0-26.595-11.93-26.595-26.594c0-14.663,11.931-26.593,26.595-26.593c14.663,0,26.592,11.93,26.592,26.593   C432.831,367.297,420.902,379.227,406.239,379.227z" fill="#802403"/>
	<path d="M365.802,81.669H204.336c-5.801,0-10.521,4.719-10.521,10.521v161.467c0,5.801,4.72,10.52,10.521,10.52h161.466   c5.801,0,10.521-4.719,10.521-10.52V92.189C376.322,86.388,371.603,81.669,365.802,81.669z M245.425,178.752V90.169h35.003v53.597   L245.425,178.752z M288.928,90.169h45.121l-45.121,45.1V90.169z M204.336,90.169h32.589v97.08l-34.609,34.594V92.189   C202.315,91.075,203.222,90.169,204.336,90.169z M202.315,253.656v-19.795L346.072,90.169h19.729c1.114,0,2.021,0.906,2.021,2.021   v21.425L225.697,255.676h-21.361C203.222,255.676,202.315,254.77,202.315,253.656z M288.928,204.493l35.001-34.985v86.169h-35.001   V204.493z M280.428,255.676h-42.707l42.707-42.688V255.676z M365.802,255.676h-33.373v-94.666l35.393-35.377v128.023   C367.822,254.77,366.916,255.676,365.802,255.676z" fill="#802403"/>
	<path d="M269.056,197.187c1.66-1.659,1.66-4.35,0.001-6.01c-1.659-1.66-4.35-1.662-6.011-0.002l-52.535,52.512   c-1.66,1.659-1.66,4.35-0.001,6.01c0.83,0.831,1.918,1.246,3.006,1.246c1.087,0,2.175-0.415,3.005-1.244L269.056,197.187z" fill="#802403"/>
</g>
<g>
</g>
<g>
</g>
<g>
</g>
<g>
</g>
<g>
</g>
<g>
</g>
<g>
</g>
<g>
</g>
<g>
</g>
<g>
</g>
<g>
</g>
<g>
</g>
<g>
</g>
<g>
</g>
<g>
</g>
</svg>
